<svg xmlns="http://www.w3.org/2000/svg" xmlns:xlink="http://www.w3.org/1999/xlink" id="body_4" preserveAspectRatio="xMinYMin meet" viewBox="0 0 793 1123"><defs><clipPath id="1"><path id="" clip-rule="evenodd" transform="matrix(1 0 0 1 0 0)" d="M0 842L0 0L0 0L595 0L595 0L595 842L595 842L0 842z" /></clipPath><clipPath id="2"><path id="" clip-rule="evenodd" transform="matrix(1 0 0 1 0 0)" d="M8.866232E-06 841L595 841L595 841L595 1L595 1L8.866232E-06 1z" /></clipPath><clipPath id="3"><path id="" clip-rule="evenodd" transform="matrix(1 0 0 1 0 0)" d="M0 840.9998L595 840.9998L595 840.9998L595 1L595 1L0 1z" /></clipPath><clipPath id="4"><path id="" clip-rule="evenodd" transform="matrix(1 0 0 1 0 0)" d="M0 841L595 841L595 841L595 1L595 1L0 1z" /></clipPath><clipPath id="5"><path id="" clip-rule="evenodd" transform="matrix(1 0 0 1 0 0)" d="M188.9184 428.132L419.0047 428.132L419.0047 428.132L419.0047 320.6498L419.0047 320.6498L188.9184 320.6498z" /></clipPath><clipPath id="6"><path id="" clip-rule="evenodd" transform="matrix(1 0 0 1 0 0)" d="M0 841L595 841L595 841L595 1L595 1L0 1z" /></clipPath></defs><g transform="matrix(1.333333 0 0 1.333333 0 0)"><g clip-path="url(#1)"><g clip-path="url(#2)"></g><g clip-path="url(#3)"><g transform="matrix(0.9728742 0 0 0.991937 -12.19344 -2.166748)"><g transform="matrix(1 0 0 1 0 0)"><image x="0" y="0" xlink:href="img_22.png" width="624" height="850" /></g></g></g><g clip-path="url(#4)"><path id="3" transform="matrix(1 0 0 -1 0 842)" d="M165.6109 396.5073L430.2686 396.5073L430.2686 396.5073L430.2686 547.1763L430.2686 547.1763L165.6109 547.1763z" stroke="none" fill="#3C569E" fill-rule="evenodd" fill-opacity="0.8705882" /></g><g clip-path="url(#5)"></g><g clip-path="url(#6)"><path id="20" transform="matrix(1 0 0 -1 0 842)" d="M184.0011 414.5476L411.8785 414.5476L411.8785 414.5476L411.8785 529.236L411.8785 529.236L184.0011 529.236z" stroke="#EBECE8" stroke-width="0.7495968" stroke-dasharray="8,3" fill="none" /></g></g></g></svg>