<svg xmlns="http://www.w3.org/2000/svg" xmlns:xlink="http://www.w3.org/1999/xlink" id="body_3" preserveAspectRatio="xMinYMin meet" viewBox="0 0 793 1123"><defs><clipPath id="1"><path id="" clip-rule="evenodd" transform="matrix(1 0 0 1 0 0)" d="M0 842L0 0L0 0L595 0L595 0L595 842L595 842L0 842z" /></clipPath><clipPath id="2"><path id="" clip-rule="evenodd" transform="matrix(1 0 0 1 0 0)" d="M0 840.9998L595 840.9998L595 840.9998L595 0.999939L595 0.999939L0 0.999939z" /></clipPath><clipPath id="3"><path id="" clip-rule="evenodd" transform="matrix(1 0 0 1 0 0)" d="M0 841L595 841L595 841L595 1L595 1L0 1z" /></clipPath><clipPath id="4"><path id="" clip-rule="evenodd" transform="matrix(1 0 0 1 0 0)" d="M8.866232E-06 841L595 841L595 841L595 1L595 1L8.866232E-06 1z" /></clipPath><clipPath id="5"><path id="" clip-rule="evenodd" transform="matrix(1 0 0 1 0 0)" d="M43.05684 32.15503L115.7617 32.15503L115.7617 32.15503L115.7617 1.091736L115.7617 1.091736L43.05684 1.091736z" /></clipPath><clipPath id="6"><path id="" clip-rule="evenodd" transform="matrix(1 0 0 1 0 0)" d="M0 840.9996L595 840.9996L595 840.9996L595 1.000061L595 1.000061L0 1.000061z" /></clipPath><clipPath id="7"><path id="" clip-rule="evenodd" transform="matrix(1 0 0 1 0 0)" d="M390.9397 235.5856L532.6035 235.5856L532.6035 235.5856L532.6035 111.2125L532.6035 111.2125L390.9397 111.2125z" /></clipPath><clipPath id="8"><path id="" clip-rule="evenodd" transform="matrix(1 0 0 1 0 0)" d="M49.29349 382.7764L190.9873 382.7764L190.9873 382.7764L190.9873 243.5113L190.9873 243.5113L49.29349 243.5113z" /></clipPath><clipPath id="9"><path id="" clip-rule="evenodd" transform="matrix(1 0 0 1 0 0)" d="M52.17194 81.34857L178.484 81.34857L178.484 81.34857L178.484 65.73297L178.484 65.73297L52.17194 65.73297z" /></clipPath><clipPath id="10"><path id="" clip-rule="evenodd" transform="matrix(1 0 0 1 0 0)" d="M53.13143 232.5872L194.9451 232.5872L194.9451 232.5872L194.9451 112.052L194.9451 112.052L53.13143 112.052z" /></clipPath><clipPath id="11"><path id="" clip-rule="evenodd" transform="matrix(1 0 0 1 0 0)" d="M218.4525 231.8676L360.2362 231.8676L360.2362 231.8676L360.2362 111.3324L360.2362 111.3324L218.4525 111.3324z" /></clipPath><clipPath id="12"><path id="" clip-rule="evenodd" transform="matrix(1 0 0 1 0 0)" d="M220.1316 425.9732L361.9153 425.9732L361.9153 425.9732L361.9153 242.0621L361.9153 242.0621L220.1316 242.0621z" /></clipPath><clipPath id="13"><path id="" clip-rule="evenodd" transform="matrix(1 0 0 1 0 0)" d="M389.0208 366.1054L530.6846 366.1054L530.6846 366.1054L530.6846 239.0737L530.6846 239.0737L389.0208 239.0737z" /></clipPath><clipPath id="14"><path id="" clip-rule="evenodd" transform="matrix(1 0 0 1 0 0)" d="M445.6603 474.5471L565.4759 474.5471L565.4759 474.5471L565.4759 438.5664L565.4759 438.5664L445.6603 438.5664z" /></clipPath><clipPath id="15"><path id="" clip-rule="evenodd" transform="matrix(1 0 0 1 0 0)" d="M51.33239 791.3467L558.5196 791.3467L558.5196 791.3467L558.5196 683.3848L558.5196 683.3848L51.33239 683.3848z" /></clipPath><clipPath id="16"><path id="" clip-rule="evenodd" transform="matrix(1 0 0 1 0 0)" d="M52.17194 653.161L170.4483 653.161L170.4483 653.161L170.4483 637.5694L170.4483 637.5694L52.17194 637.5694z" /></clipPath><clipPath id="17"><path id="" clip-rule="evenodd" transform="matrix(1 0 0 1 0 0)" d="M0 840.9998L595 840.9998L595 840.9998L595 0.999939L595 0.999939L0 0.999939z" /></clipPath><clipPath id="18"><path id="" clip-rule="evenodd" transform="matrix(1 0 0 1 0 0)" d="M0 840.9996L595 840.9996L595 840.9996L595 1.000061L595 1.000061L0 1.000061z" /></clipPath><clipPath id="19"><path id="" clip-rule="evenodd" transform="matrix(1 0 0 1 0 0)" d="M52.17194 413.26L170.4483 413.26L170.4483 413.26L170.4483 397.6444L170.4483 397.6444L52.17194 397.6444z" /></clipPath><clipPath id="20"><path id="" clip-rule="evenodd" transform="matrix(1 0 0 1 0 0)" d="M0 840.9997L595 840.9997L595 840.9997L595 1L595 1L0 1z" /></clipPath><clipPath id="21"><path id="" clip-rule="evenodd" transform="matrix(1 0 0 1 0 0)" d="M43.53659 454.7577L298.9292 454.7577L298.9292 454.7577L298.9292 436.7674L298.9292 436.7674L43.53659 436.7674z" /></clipPath><clipPath id="22"><path id="" clip-rule="evenodd" transform="matrix(1 0 0 1 0 0)" d="M445.6603 541.711L565.4759 541.711L565.4759 541.711L565.4759 505.7303L565.4759 505.7303L445.6603 505.7303z" /></clipPath><clipPath id="23"><path id="" clip-rule="evenodd" transform="matrix(1 0 0 1 0 0)" d="M56.00988 492.2975L467.4886 492.2975L467.4886 492.2975L467.4886 456.3168L467.4886 456.3168L56.00988 456.3168z" /></clipPath><clipPath id="24"><path id="" clip-rule="evenodd" transform="matrix(1 0 0 1 0 0)" d="M45.33562 521.202L247.237 521.202L247.237 521.202L247.237 503.2117L247.237 503.2117L45.33562 503.2117z" /></clipPath><clipPath id="25"><path id="" clip-rule="evenodd" transform="matrix(1 0 0 1 0 0)" d="M446.8597 625.336L566.6753 625.336L566.6753 625.336L566.6753 571.365L566.6753 571.365L446.8597 571.365z" /></clipPath><clipPath id="26"><path id="" clip-rule="evenodd" transform="matrix(1 0 0 1 0 0)" d="M55.53014 560.9006L467.0089 560.9006L467.0089 560.9006L467.0089 524.9199L467.0089 524.9199L55.53014 524.9199z" /></clipPath><clipPath id="27"><path id="" clip-rule="evenodd" transform="matrix(1 0 0 1 0 0)" d="M45.21568 585.1576L247.1171 585.1576L247.1171 585.1576L247.1171 567.1433L247.1171 567.1433L45.21568 567.1433z" /></clipPath><clipPath id="28"><path id="" clip-rule="evenodd" transform="matrix(1 0 0 1 0 0)" d="M55.29026 624.8562L466.8889 624.8562L466.8889 624.8562L466.8889 588.8755L466.8889 588.8755L55.29026 588.8755z" /></clipPath></defs><g transform="matrix(1.333333 0 0 1.333333 0 0)"><g clip-path="url(#1)"><g clip-path="url(#2)"><path id="1" transform="matrix(1 0 0 -1 0 842)" d="M-5.746909 808.2858L595.9295 808.2858L595.9295 808.2858L595.9295 845.116L595.9295 845.116L-5.746909 845.116z" stroke="none" fill="#8DB3E2" fill-rule="evenodd" /></g><g clip-path="url(#3)"><path id="2" transform="matrix(1 0 0 -1 0 842)" d="M24.7367 750.8167L571.1928 750.8167L571.1928 750.8167L571.1928 754.3648L571.1928 754.3648L24.7367 754.3648z" stroke="none" fill="#8DB3E2" fill-rule="evenodd" /><path id="3" transform="matrix(1 0 0 -1 0 842)" d="M24.7367 178.7744L571.1928 178.7744L571.1928 178.7744L571.1928 182.3225L571.1928 182.3225L24.7367 182.3225z" stroke="none" fill="#8DB3E2" fill-rule="evenodd" /><path id="4" transform="matrix(1 0 0 -1 0 842)" d="M24.7367 417.8958L571.1928 417.8958L571.1928 417.8958L571.1928 421.4439L571.1928 421.4439L24.7367 421.4439z" stroke="none" fill="#8DB3E2" fill-rule="evenodd" /></g><g clip-path="url(#4)"></g><g clip-path="url(#5)"></g><g clip-path="url(#6)"><g transform="matrix(0.3248253 0 0 0.3248253 17.94035 7.028503)"><g transform="matrix(1 0 0 1 0 0)"><image x="0" y="0" xlink:href="img_08.png" width="60" height="60" /></g></g></g><g clip-path="url(#7)"></g><g clip-path="url(#8)"></g><g clip-path="url(#9)"></g><g clip-path="url(#10)"></g><g clip-path="url(#11)"></g><g clip-path="url(#12)"></g><g clip-path="url(#13)"></g><g clip-path="url(#14)"></g><g clip-path="url(#15)"></g><g clip-path="url(#16)"></g><g clip-path="url(#17)"><g transform="matrix(0.6090475 0 0 0.6090475 26.98549 393.7206)"><g transform="matrix(1 0 0 1 0 0)"><image x="0" y="0" xlink:href="img_18.png" width="32" height="32" /></g></g></g><g clip-path="url(#18)"><g transform="matrix(0.5621975 0 0 0.5621975 26.98549 64.7475)"><g transform="matrix(1 0 0 1 0 0)"><image x="0" y="0" xlink:href="img_19.png" width="32" height="32" /></g></g></g><g clip-path="url(#19)"></g><g clip-path="url(#20)"><g transform="matrix(0.6199791 0 0 0.6199791 26.98549 634.441)"><g transform="matrix(1 0 0 1 0 0)"><image x="0" y="0" xlink:href="img_20.png" width="32" height="32" /></g></g></g><g clip-path="url(#21)"></g><g clip-path="url(#22)"></g><g clip-path="url(#23)"></g><g clip-path="url(#24)"></g><g clip-path="url(#25)"></g><g clip-path="url(#26)"></g><g clip-path="url(#27)"></g><g clip-path="url(#28)"></g></g></g></svg>