<svg xmlns="http://www.w3.org/2000/svg" xmlns:xlink="http://www.w3.org/1999/xlink" id="body_1" preserveAspectRatio="xMinYMin meet" viewBox="0 0 793 1123"><defs><clipPath id="1"><path id="" clip-rule="evenodd" transform="matrix(1 0 0 1 0 0)" d="M0 842L0 0L0 0L595 0L595 0L595 842L595 842L0 842z" /></clipPath><clipPath id="2"><path id="" clip-rule="evenodd" transform="matrix(1 0 0 1 0 0)" d="M0 840.9996L595 840.9996L595 840.9996L595 1.000061L595 1.000061L0 1.000061z" /></clipPath><clipPath id="3"><path id="" clip-rule="evenodd" transform="matrix(1 0 0 1 0 0)" d="M8.866232E-06 841L595 841L595 841L595 1L595 1L8.866232E-06 1z" /></clipPath><clipPath id="4"><path id="" clip-rule="evenodd" transform="matrix(1 0 0 1 0 0)" d="M8.866232E-06 841L595 841L595 841L595 1L595 1L8.866232E-06 1z" /></clipPath><clipPath id="5"><path id="" clip-rule="evenodd" transform="matrix(1 0 0 1 0 0)" d="M8.866232E-06 841L595 841L595 841L595 1L595 1L8.866232E-06 1z" /></clipPath><clipPath id="6"><path id="" clip-rule="evenodd" transform="matrix(1 0 0 1 0 0)" d="M1.20935E-06 840.9998L595 840.9998L595 840.9998L595 0.999939L595 0.999939L1.20935E-06 0.999939z" /></clipPath><clipPath id="7"><path id="" clip-rule="evenodd" transform="matrix(1 0 0 1 0 0)" d="M409.05 460.2748L562.7074 460.2748L562.7074 460.2748L562.7074 429.0916L562.7074 429.0916L409.05 429.0916z" /></clipPath><clipPath id="8"><path id="" clip-rule="evenodd" transform="matrix(1 0 0 1 0 0)" d="M60.20762 792.7859L243.519 792.7859L243.519 792.7859L243.519 714.8038L243.519 714.8038L60.20762 714.8038z" /></clipPath><clipPath id="9"><path id="" clip-rule="evenodd" transform="matrix(1 0 0 1 0 0)" d="M0 840.9998L595 840.9998L595 840.9998L595 1L595 1L0 1z" /></clipPath><clipPath id="10"><path id="" clip-rule="evenodd" transform="matrix(1 0 0 1 0 0)" d="M0 840.9998L595 840.9998L595 840.9998L595 1L595 1L0 1z" /></clipPath><clipPath id="11"><path id="" clip-rule="evenodd" transform="matrix(1 0 0 1 0 0)" d="M0 840.9998L595 840.9998L595 840.9998L595 0.999939L595 0.999939L0 0.999939z" /></clipPath><clipPath id="12"><path id="" clip-rule="evenodd" transform="matrix(1 0 0 1 0 0)" d="M0 841L595 841L595 841L595 1L595 1L0 1z" /></clipPath></defs><g transform="matrix(1.333333 0 0 1.333333 0 0)"><g clip-path="url(#1)"><g clip-path="url(#2)"><g transform="matrix(0.8733538 0 0 0.9585061 1.299401 -3.0625)"><g transform="matrix(1 0 0 1 0 0)"><image x="0" y="0" xlink:href="img_01.png" width="680" height="879" /></g></g></g><g clip-path="url(#3)"></g><g clip-path="url(#4)"></g><g clip-path="url(#5)"></g><g clip-path="url(#6)"><g transform="matrix(0.46475 0 0 0.4664159 389.1907 352.5427)"><g transform="matrix(1 0 0 1 0 0)"><image x="0" y="0" xlink:href="img_02.png" width="350" height="180" /></g></g></g><g clip-path="url(#7)"></g><g clip-path="url(#8)"></g><g clip-path="url(#9)"><g transform="matrix(0.4419497 0 0 0.4403881 46.02525 725.4422)"><g transform="matrix(1 0 0 1 0 0)"><image x="0" y="0" xlink:href="img_03.png" width="32" height="32" /></g></g></g><g clip-path="url(#10)"><g transform="matrix(0.4419497 0 0 0.4403881 45.57549 752.8274)"><g transform="matrix(1 0 0 1 0 0)"><image x="0" y="0" xlink:href="img_04.png" width="32" height="32" /></g></g></g><g clip-path="url(#11)"><g transform="matrix(0.3435653 0 0 0.3420034 47.42449 780.2127)"><g transform="matrix(1 0 0 1 0 0)"><image x="0" y="0" xlink:href="img_05.png" width="32" height="32" /></g></g></g><g clip-path="url(#12)"><path id="53" transform="matrix(1 0 0 -1 0 842)" d="M67.41374 74.88026L197.7437 74.88026" stroke="#808080" stroke-width="0.9994625" fill="none" /><path id="54" transform="matrix(1 0 0 -1 0 842)" d="M67.41374 48.0447L197.7437 48.0447" stroke="#808080" stroke-width="0.9994625" fill="none" /><path id="55" transform="matrix(1 0 0 -1 0 842)" d="M67.56366 101.6659L197.8936 101.6659" stroke="#808080" stroke-width="0.9994625" fill="none" /></g></g></g></svg>