<svg xmlns="http://www.w3.org/2000/svg" xmlns:xlink="http://www.w3.org/1999/xlink" id="body_2" preserveAspectRatio="xMinYMin meet" viewBox="0 0 793 1123"><defs><clipPath id="1"><path id="" clip-rule="evenodd" transform="matrix(1 0 0 1 0 0)" d="M0 842L0 0L0 0L595 0L595 0L595 842L595 842L0 842z" /></clipPath><clipPath id="2"><path id="" clip-rule="evenodd" transform="matrix(1 0 0 1 0 0)" d="M0 841L595 841L595 841L595 1L595 1L0 1z" /></clipPath><clipPath id="3"><path id="" clip-rule="evenodd" transform="matrix(1 0 0 1 0 0)" d="M0 840.9998L595 840.9998L595 840.9998L595 0.999939L595 0.999939L0 0.999939z" /></clipPath><clipPath id="4"><path id="" clip-rule="evenodd" transform="matrix(1 0 0 1 0 0)" d="M0 841L595 841L595 841L595 1L595 1L0 1z" /></clipPath><clipPath id="5"><path id="" clip-rule="evenodd" transform="matrix(1 0 0 1 0 0)" d="M8.866232E-06 841L595 841L595 841L595 1L595 1L8.866232E-06 1z" /></clipPath><clipPath id="6"><path id="" clip-rule="evenodd" transform="matrix(1 0 0 1 0 0)" d="M8.866232E-06 841L595 841L595 841L595 1L595 1L8.866232E-06 1z" /></clipPath><clipPath id="7"><path id="" clip-rule="evenodd" transform="matrix(1 0 0 1 0 0)" d="M8.866232E-06 841L595 841L595 841L595 1L595 1L8.866232E-06 1z" /></clipPath><clipPath id="8"><path id="" clip-rule="evenodd" transform="matrix(1 0 0 1 0 0)" d="M8.866232E-06 841L595 841L595 841L595 1L595 1L8.866232E-06 1z" /></clipPath><clipPath id="9"><path id="" clip-rule="evenodd" transform="matrix(1 0 0 1 0 0)" d="M8.866232E-06 841L595 841L595 841L595 1L595 1L8.866232E-06 1z" /></clipPath><clipPath id="10"><path id="" clip-rule="evenodd" transform="matrix(1 0 0 1 0 0)" d="M0 840.9998L595 840.9998L595 840.9998L595 1L595 1L0 1z" /></clipPath><clipPath id="11"><path id="" clip-rule="evenodd" transform="matrix(1 0 0 1 0 0)" d="M222.4104 117.8089L388.0613 117.8089L388.0613 117.8089L388.0613 42.94519L388.0613 42.94519L222.4104 42.94519z" /></clipPath><clipPath id="12"><path id="" clip-rule="evenodd" transform="matrix(1 0 0 1 0 0)" d="M36.70026 135.6793L202.5011 135.6793L202.5011 135.6793L202.5011 44.62427L202.5011 44.62427L36.70026 44.62427z" /></clipPath><clipPath id="13"><path id="" clip-rule="evenodd" transform="matrix(1 0 0 1 0 0)" d="M62.24652 151.5108L150.663 151.5108L150.663 151.5108L150.663 135.9192L150.663 135.9192L62.24652 135.9192z" /></clipPath><clipPath id="14"><path id="" clip-rule="evenodd" transform="matrix(1 0 0 1 0 0)" d="M239.921 150.1915L394.178 150.1915L394.178 150.1915L394.178 134.5999L394.178 134.5999L239.921 134.5999z" /></clipPath><clipPath id="15"><path id="" clip-rule="evenodd" transform="matrix(1 0 0 1 0 0)" d="M62.96614 172.8593L273.6228 172.8593L273.6228 172.8593L273.6228 157.2677L273.6228 157.2677L62.96614 157.2677z" /></clipPath><clipPath id="16"><path id="" clip-rule="evenodd" transform="matrix(1 0 0 1 0 0)" d="M52.17194 205.002L178.484 205.002L178.484 205.002L178.484 189.4104L178.484 189.4104L52.17194 189.4104z" /></clipPath><clipPath id="17"><path id="" clip-rule="evenodd" transform="matrix(1 0 0 1 0 0)" d="M52.17194 672.4706L215.694 672.4706L215.694 672.4706L215.694 656.879L215.694 656.879L52.17194 656.879z" /></clipPath><clipPath id="18"><path id="" clip-rule="evenodd" transform="matrix(1 0 0 1 0 0)" d="M49.05362 802.2608L248.3164 802.2608L248.3164 802.2608L248.3164 694.299L248.3164 694.299L49.05362 694.299z" /></clipPath><clipPath id="19"><path id="" clip-rule="evenodd" transform="matrix(1 0 0 1 0 0)" d="M330.6122 802.2608L565.346 802.2608L565.346 802.2608L565.346 694.299L565.346 694.299L330.6122 694.299z" /></clipPath><clipPath id="20"><path id="" clip-rule="evenodd" transform="matrix(1 0 0 1 0 0)" d="M0 841L595 841L595 841L595 1L595 1L0 1z" /></clipPath><clipPath id="21"><path id="" clip-rule="evenodd" transform="matrix(1 0 0 1 0 0)" d="M52.17194 362.9871L178.484 362.9871L178.484 362.9871L178.484 347.3955L178.484 347.3955L52.17194 347.3955z" /></clipPath><clipPath id="22"><path id="" clip-rule="evenodd" transform="matrix(1 0 0 1 0 0)" d="M47.37452 469.7497L535.0122 469.7497L535.0122 469.7497L535.0122 381.5731L535.0122 381.5731L47.37452 381.5731z" /></clipPath><clipPath id="23"><path id="" clip-rule="evenodd" transform="matrix(1 0 0 1 0 0)" d="M46.77484 657.8385L510.4254 657.8385L510.4254 657.8385L510.4254 518.5734L510.4254 518.5734L46.77484 518.5734z" /></clipPath><clipPath id="24"><path id="" clip-rule="evenodd" transform="matrix(1 0 0 1 0 0)" d="M355.4388 672.4706L518.9309 672.4706L518.9309 672.4706L518.9309 656.879L518.9309 656.879L355.4388 656.879z" /></clipPath><clipPath id="25"><path id="" clip-rule="evenodd" transform="matrix(1 0 0 1 0 0)" d="M46.77484 31.43542L119.5997 31.43542L119.5997 31.43542L119.5997 1L119.5997 1L46.77484 1z" /></clipPath><clipPath id="26"><path id="" clip-rule="evenodd" transform="matrix(1 0 0 1 0 0)" d="M0 840.9997L595 840.9997L595 840.9997L595 1L595 1L0 1z" /></clipPath><clipPath id="27"><path id="" clip-rule="evenodd" transform="matrix(1 0 0 1 0 0)" d="M52.17194 500.3332L178.484 500.3332L178.484 500.3332L178.484 484.7416L178.484 484.7416L52.17194 484.7416z" /></clipPath><clipPath id="28"><path id="" clip-rule="evenodd" transform="matrix(1 0 0 1 0 0)" d="M0 840.9998L595 840.9998L595 840.9998L595 0.999939L595 0.999939L0 0.999939z" /></clipPath><clipPath id="29"><path id="" clip-rule="evenodd" transform="matrix(1 0 0 1 0 0)" d="M1.878989E-06 840.9996L595 840.9996L595 840.9996L595 1.000061L595 1.000061L1.878989E-06 1.000061z" /></clipPath><clipPath id="30"><path id="" clip-rule="evenodd" transform="matrix(1 0 0 1 0 0)" d="M1.878989E-06 840.9998L595 840.9998L595 840.9998L595 1L595 1L1.878989E-06 1z" /></clipPath><clipPath id="31"><path id="" clip-rule="evenodd" transform="matrix(1 0 0 1 0 0)" d="M0 840.9998L595 840.9998L595 840.9998L595 0.999939L595 0.999939L0 0.999939z" /></clipPath><clipPath id="32"><path id="" clip-rule="evenodd" transform="matrix(1 0 0 1 0 0)" d="M45.69542 282.5104L202.5011 282.5104L202.5011 282.5104L202.5011 227.436L202.5011 227.436L45.69542 227.436z" /></clipPath><clipPath id="33"><path id="" clip-rule="evenodd" transform="matrix(1 0 0 1 0 0)" d="M407.9706 259.2429L564.7463 259.2429L564.7463 259.2429L564.7463 225.9968L564.7463 225.9968L407.9706 225.9968z" /></clipPath><clipPath id="34"><path id="" clip-rule="evenodd" transform="matrix(1 0 0 1 0 0)" d="M45.69542 306.4975L202.5011 306.4975L202.5011 306.4975L202.5011 266.439L202.5011 266.439L45.69542 266.439z" /></clipPath><clipPath id="35"><path id="" clip-rule="evenodd" transform="matrix(1 0 0 1 0 0)" d="M407.9706 306.4975L564.7463 306.4975L564.7463 306.4975L564.7463 264.9998L564.7463 264.9998L407.9706 264.9998z" /></clipPath><clipPath id="36"><path id="" clip-rule="evenodd" transform="matrix(1 0 0 1 0 0)" d="M0 841L595 841L595 841L595 1L595 1L0 1z" /></clipPath><clipPath id="37"><path id="" clip-rule="evenodd" transform="matrix(1 0 0 1 0 0)" d="M0 840.9997L595 840.9997L595 840.9997L595 1L595 1L0 1z" /></clipPath><clipPath id="38"><path id="" clip-rule="evenodd" transform="matrix(1 0 0 1 0 0)" d="M0 841L595 841L595 841L595 1L595 1L0 1z" /></clipPath><clipPath id="39"><path id="" clip-rule="evenodd" transform="matrix(1 0 0 1 0 0)" d="M3.689016E-06 840.9998L595 840.9998L595 840.9998L595 0.999939L595 0.999939L3.689016E-06 0.999939z" /></clipPath><clipPath id="40"><path id="" clip-rule="evenodd" transform="matrix(1 0 0 1 0 0)" d="M0 841L595 841L595 841L595 1L595 1L0 1z" /></clipPath><clipPath id="41"><path id="" clip-rule="evenodd" transform="matrix(1 0 0 1 0 0)" d="M0 840.9998L595 840.9998L595 840.9998L595 0.999939L595 0.999939L0 0.999939z" /></clipPath><clipPath id="42"><path id="" clip-rule="evenodd" transform="matrix(1 0 0 1 0 0)" d="M3.430155E-06 840.9998L595 840.9998L595 840.9998L595 1L595 1L3.430155E-06 1z" /></clipPath><clipPath id="43"><path id="" clip-rule="evenodd" transform="matrix(1 0 0 1 0 0)" d="M0 841L595 841L595 841L595 1L595 1L0 1z" /></clipPath><clipPath id="44"><path id="" clip-rule="evenodd" transform="matrix(1 0 0 1 0 0)" d="M27.10542 336.6013L504.5486 336.6013L504.5486 336.6013L504.5486 300.9805L504.5486 300.9805L27.10542 300.9805z" /></clipPath></defs><g transform="matrix(1.333333 0 0 1.333333 0 0)"><g clip-path="url(#1)"><g clip-path="url(#2)"><path id="1" transform="matrix(1 0 0 -1 0 842)" d="M38.02955 505.1489L133.4282 505.1489L133.4282 505.1489L133.4282 526.8872L133.4282 526.8872L38.02955 526.8872z" stroke="none" fill="#FFFFFF" fill-rule="evenodd" /><path id="2" transform="matrix(1 0 0 -1 0 842)" d="M37.27995 124.2537L132.7786 124.2537L132.7786 124.2537L132.7786 145.992L132.7786 145.992L37.27995 145.992z" stroke="none" fill="#FFFFFF" fill-rule="evenodd" /><path id="3" transform="matrix(1 0 0 -1 0 842)" d="M38.77914 388.6615L134.1778 388.6615L134.1778 388.6615L134.1778 410.3998L134.1778 410.3998L38.77914 410.3998z" stroke="none" fill="#FFFFFF" fill-rule="evenodd" /><path id="4" transform="matrix(1 0 0 -1 0 842)" d="M38.77914 272.7738L134.1778 272.7738L134.1778 272.7738L134.1778 294.5121L134.1778 294.5121L38.77914 294.5121z" stroke="none" fill="#FFFFFF" fill-rule="evenodd" /><path id="5" transform="matrix(1 0 0 -1 0 842)" d="M24.7367 631.1311L571.1928 631.1311L571.1928 631.1311L571.1928 634.6792L571.1928 634.6792L24.7367 634.6792z" stroke="none" fill="#8DB3E2" fill-rule="evenodd" /><path id="6" transform="matrix(1 0 0 -1 0 842)" d="M24.7367 468.3187L571.1928 468.3187L571.1928 468.3187L571.1928 471.8668L571.1928 471.8668L24.7367 471.8668z" stroke="none" fill="#8DB3E2" fill-rule="evenodd" /><path id="7" transform="matrix(1 0 0 -1 0 842)" d="M24.7367 158.5852L265.5572 158.5852L265.5572 158.5852L265.5572 162.1333L265.5572 162.1333L24.7367 162.1333z" stroke="none" fill="#8DB3E2" fill-rule="evenodd" /><path id="8" transform="matrix(1 0 0 -1 0 842)" d="M330.3723 158.5852L571.1928 158.5852L571.1928 158.5852L571.1928 162.1333L571.1928 162.1333L330.3723 162.1333z" stroke="none" fill="#8DB3E2" fill-rule="evenodd" /></g><g clip-path="url(#3)"><path id="9" transform="matrix(1 0 0 -1 0 842)" d="M-1.998925 808.2858L599.6775 808.2858L599.6775 808.2858L599.6775 845.116L599.6775 845.116L-1.998925 845.116z" stroke="none" fill="#8DB3E2" fill-rule="evenodd" /></g><g clip-path="url(#4)"><path id="10" transform="matrix(1 0 0 -1 0 842)" d="M24.7367 330.3429L571.1928 330.3429L571.1928 330.3429L571.1928 333.891L571.1928 333.891L24.7367 333.891z" stroke="none" fill="#8DB3E2" fill-rule="evenodd" /></g><g clip-path="url(#5)"></g><g clip-path="url(#6)"></g><g clip-path="url(#7)"></g><g clip-path="url(#8)"></g><g clip-path="url(#9)"></g><g clip-path="url(#10)"><g transform="matrix(0.6090475 0 0 0.6090475 332.821 655.4798)"><g transform="matrix(1 0 0 1 0 0)"><image x="0" y="0" xlink:href="img_07.png" width="32" height="32" /></g></g></g><g clip-path="url(#11)"></g><g clip-path="url(#12)"></g><g clip-path="url(#13)"></g><g clip-path="url(#14)"></g><g clip-path="url(#15)"></g><g clip-path="url(#16)"></g><g clip-path="url(#17)"></g><g clip-path="url(#18)"></g><g clip-path="url(#19)"></g><g clip-path="url(#20)"><path id="325" transform="matrix(1 0 0 -1 0 842)" d="M40.87802 716.6851L420.5238 716.6851" stroke="#7F7F7F" stroke-width="1.249328" fill="none" /></g><g clip-path="url(#21)"></g><g clip-path="url(#22)"></g><g clip-path="url(#23)"></g><g clip-path="url(#24)"></g><g clip-path="url(#25)"></g><g clip-path="url(#26)"><g transform="matrix(0.3248253 0 0 0.3248253 21.68834 6.27887)"><g transform="matrix(1 0 0 1 0 0)"><image x="0" y="0" xlink:href="img_08.png" width="60" height="60" /></g></g></g><g clip-path="url(#27)"></g><g clip-path="url(#28)"><g transform="matrix(0.4684981 0 0 0.5153478 27.73508 348.1951)"><g transform="matrix(1 0 0 1 0 0)"><image x="0" y="0" xlink:href="img_09.png" width="32" height="32" /></g></g></g><g clip-path="url(#29)"><g transform="matrix(0.6090475 0 0 0.6090475 27.73508 186.532)"><g transform="matrix(1 0 0 1 0 0)"><image x="0" y="0" xlink:href="img_10.png" width="32" height="32" /></g></g></g><g clip-path="url(#30)"><g transform="matrix(0.6090475 0 0 0.6090475 27.73508 482.6228)"><g transform="matrix(1 0 0 1 0 0)"><image x="0" y="0" xlink:href="img_11.png" width="32" height="32" /></g></g></g><g clip-path="url(#31)"><g transform="matrix(0.5762525 0 0 0.5762525 27.73508 654.6302)"><g transform="matrix(1 0 0 1 0 0)"><image x="0" y="0" xlink:href="img_12.png" width="32" height="32" /></g></g></g><g clip-path="url(#32)"></g><g clip-path="url(#33)"></g><g clip-path="url(#34)"></g><g clip-path="url(#35)"></g><g clip-path="url(#36)"><path id="967" transform="matrix(1 0 0 -1 0 842)" d="M224.7291 699.6143C 224.7291 704.1019 228.3672 707.7399 232.8548 707.7399C 237.3324 707.7399 240.9704 704.1019 240.9704 699.6143C 240.9704 695.1367 237.3324 691.4986 232.8548 691.4986C 228.3672 691.4986 224.7291 695.1367 224.7291 699.6143z" stroke="none" fill="#808080" fill-rule="evenodd" /></g><g clip-path="url(#37)"><g transform="matrix(0.3092087 0 0 0.3092087 228.0773 137.0087)"><g transform="matrix(1 0 0 1 0 0)"><image x="0" y="0" xlink:href="img_13.png" width="32" height="32" /></g></g></g><g clip-path="url(#38)"><path id="969" transform="matrix(1 0 0 -1 0 842)" d="M46.47501 699.4144C 46.47501 703.872 50.08806 707.49 54.54566 707.49C 59.00327 707.49 62.61632 703.872 62.61632 699.4144C 62.61632 694.9668 59.00327 691.3487 54.54566 691.3487C 50.08806 691.3487 46.47501 694.9668 46.47501 699.4144z" stroke="none" fill="#808080" fill-rule="evenodd" /></g><g clip-path="url(#39)"><g transform="matrix(0.3185787 0 0 0.3185787 49.87318 136.9587)"><g transform="matrix(1 0 0 1 0 0)"><image x="0" y="0" xlink:href="img_14.png" width="32" height="32" /></g></g></g><g clip-path="url(#40)"><path id="971" transform="matrix(1 0 0 -1 0 842)" d="M46.37506 676.3368C 46.37506 680.7844 49.98812 684.4025 54.44572 684.4025C 58.90332 684.4025 62.51638 680.7844 62.51638 676.3368C 62.51638 671.8792 58.90332 668.2611 54.44572 668.2611C 49.98812 668.2611 46.37506 671.8792 46.37506 676.3368z" stroke="none" fill="#808080" fill-rule="evenodd" /></g><g clip-path="url(#41)"><g transform="matrix(0.3659322 0 0 0.3659322 49.32347 160.446)"><g transform="matrix(1 0 0 1 0 0)"><image x="0" y="0" xlink:href="img_15.png" width="31" height="31" /></g></g></g><g clip-path="url(#42)"><g transform="matrix(0.3605725 0 0 0.3603777 441.6125 55.55237)"><g transform="matrix(1 0 0 1 0 0)"><image x="0" y="0" xlink:href="img_16.png" width="274" height="350" /></g></g></g><g clip-path="url(#43)"><path id="974" transform="matrix(1 0 0 -1 0 842)" d="M441.4926 660.1855L540.5393 660.1855L540.5393 660.1855L540.5393 786.5675L540.5393 786.5675L441.4926 786.5675z" stroke="#8EB4E3" stroke-width="0.2498656" fill="none" /><path id="975" transform="matrix(1 0 0 -1 0 842)" d="M26.88554 501.5508L504.7285 501.5508L504.7285 501.5508L504.7285 544.9775L504.7285 544.9775L26.88554 544.9775z" stroke="none" fill="#FFFFFF" fill-rule="evenodd" /></g><g clip-path="url(#44)"></g></g></g></svg>